<svg xmlns="http://www.w3.org/2000/svg" xmlns:xlink="http://www.w3.org/1999/xlink" width="277.903" height="372.244" viewBox="0 0 277.903 372.244">
  <defs>
    <linearGradient id="linear-gradient" x2="1" y2="0.22" gradientUnits="objectBoundingBox">
      <stop offset="0" stop-color="#eb8a50"/>
      <stop offset="1" stop-color="#a03979"/>
    </linearGradient>
    <filter id="Subtraction_15" x="8.301" y="0" width="262.001" height="372.001" filterUnits="userSpaceOnUse">
      <feOffset dy="3" input="SourceAlpha"/>
      <feGaussianBlur stdDeviation="3" result="blur"/>
      <feFlood flood-opacity="0.627"/>
      <feComposite operator="in" in2="blur"/>
      <feComposite in="SourceGraphic"/>
    </filter>
    <linearGradient id="linear-gradient-2" x1="0.5" x2="0.5" y2="1" gradientUnits="objectBoundingBox">
      <stop offset="0" stop-color="#fff"/>
      <stop offset="1" stop-color="#fff"/>
    </linearGradient>
    <filter id="Path_363" x="9.302" y="159.4" width="262" height="177.6" filterUnits="userSpaceOnUse">
      <feOffset dy="3" input="SourceAlpha"/>
      <feGaussianBlur stdDeviation="3" result="blur-2"/>
      <feFlood flood-opacity="0.871"/>
      <feComposite operator="in" in2="blur-2"/>
      <feComposite in="SourceGraphic"/>
    </filter>
    <filter id="Subtraction_16" x="0" y="204" width="277.903" height="168.244" filterUnits="userSpaceOnUse">
      <feOffset dy="3" input="SourceAlpha"/>
      <feGaussianBlur stdDeviation="3" result="blur-3"/>
      <feFlood flood-opacity="0.557"/>
      <feComposite operator="in" in2="blur-3"/>
      <feComposite in="SourceGraphic"/>
    </filter>
  </defs>
  <g id="Group_1190" data-name="Group 1190" transform="translate(-64.048 -123)">
    <g transform="matrix(1, 0, 0, 1, 64.05, 123)" filter="url(#Subtraction_15)">
      <path id="Subtraction_15-2" data-name="Subtraction 15" d="M-15198-5195h-218a12.916,12.916,0,0,1-9.2-3.809A12.921,12.921,0,0,1-15429-5208v-328a12.914,12.914,0,0,1,3.808-9.191,12.917,12.917,0,0,1,9.2-3.808h218a12.913,12.913,0,0,1,9.191,3.808A12.915,12.915,0,0,1-15185-5536v328a12.923,12.923,0,0,1-3.808,9.193A12.912,12.912,0,0,1-15198-5195Zm-155-322a9.931,9.931,0,0,0-7.072,2.929A9.932,9.932,0,0,0-15363-5507a9.926,9.926,0,0,0,2.93,7.07A9.934,9.934,0,0,0-15353-5497h92a10.01,10.01,0,0,0,10-10,10.011,10.011,0,0,0-10-10h-36v-4a9.012,9.012,0,0,0-9-9h-3a9.012,9.012,0,0,0-9,9v4Z" transform="translate(15446.3 5555)" fill="url(#linear-gradient)"/>
    </g>
    <g transform="matrix(1, 0, 0, 1, 64.05, 123)" filter="url(#Path_363)">
      <path id="Path_363-2" data-name="Path 363" d="M15,0H229c8.284,0,15,7.146,15,15.96V143.64c0,8.814-6.716,15.96-15,15.96H15c-8.284,0-15-7.146-15-15.96V15.96C0,7.146,6.716,0,15,0Z" transform="translate(18.3 165.4)" fill="url(#linear-gradient-2)"/>
    </g>
    <g transform="matrix(1, 0, 0, 1, 64.05, 123)" filter="url(#Subtraction_16)">
      <path id="Subtraction_16-2" data-name="Subtraction 16" d="M-15407.1-5398.756a13.694,13.694,0,0,1-10.207-4.435,15.63,15.63,0,0,1-3.992-10.647L-15429-5534a14.9,14.9,0,0,1,4.394-10.608A14.908,14.908,0,0,1-15414-5549h229.9a14.9,14.9,0,0,1,10.607,4.393A14.9,14.9,0,0,1-15169.1-5534l-7.1,120a16.25,16.25,0,0,1-3.8,10.726,13.033,13.033,0,0,1-4.359,3.3,13.319,13.319,0,0,1-5.652,1.215Zm138.452-80.312a7.593,7.593,0,0,0-6.864,4.05l-7.573,15.465a6.224,6.224,0,0,0-.234,5.016,7.136,7.136,0,0,0,4.036,3.991l.445.182a8.06,8.06,0,0,0,3.052.593,7.58,7.58,0,0,0,6.857-4.05l7.578-15.466a6.224,6.224,0,0,0,.235-5.014,7.145,7.145,0,0,0-4.038-4l-.445-.178A8.093,8.093,0,0,0-15268.648-5479.068Zm-18.27-16.953a7.593,7.593,0,0,0-6.863,4.05l-15.423,31.489a10.806,10.806,0,0,1-2.157,2.625,5.459,5.459,0,0,1-1.854,1.007h-.012c-.252.02-1.092.088-1.289.135-.221.052-.313.333-.317.344a1.335,1.335,0,0,0,.395.442c.47.335,2.532,1.38,2.552,1.39s1.238.658,2.851,1.452c1.555.769,2.152,1.011,3.461,1.541l.015.006.16.064.445.182a8.114,8.114,0,0,0,3.047.588,7.58,7.58,0,0,0,6.861-4.046l15.427-31.488a6.227,6.227,0,0,0,.235-5.015,7.151,7.151,0,0,0-4.037-4l-.445-.178A8.081,8.081,0,0,0-15286.918-5496.021Zm-25.565-3.621a11.8,11.8,0,0,0-5.153,1.178,10.964,10.964,0,0,0-3.865,3.132c-.13.163-.253.333-.376.522a9.782,9.782,0,0,0-1.053,2.041l-14.761,30.133a6.229,6.229,0,0,0-.231,5.018,7.038,7.038,0,0,0,4.034,3.985l.445.182a8.062,8.062,0,0,0,3.055.588,8.113,8.113,0,0,0,2.684-.449,7.209,7.209,0,0,0,4.166-3.6l10.912-22.276c.046,0,.1,0,.144,0a11.453,11.453,0,0,0,7.82-3,9.8,9.8,0,0,0,3.238-7.233,9.8,9.8,0,0,0-3.238-7.233A11.453,11.453,0,0,0-15312.483-5499.641Z" transform="translate(15438 5759)" fill="url(#linear-gradient)"/>
    </g>
  </g>
</svg>
