<svg xmlns="http://www.w3.org/2000/svg" xmlns:xlink="http://www.w3.org/1999/xlink" width="277.905" height="372.148" viewBox="0 0 277.905 372.148">
  <defs>
    <linearGradient id="linear-gradient" x1="0.5" x2="0.5" y2="1" gradientUnits="objectBoundingBox">
      <stop offset="0" stop-color="#edeff4"/>
      <stop offset="0.578" stop-color="#b3b5b9"/>
      <stop offset="1" stop-color="#77787a"/>
    </linearGradient>
    <filter id="Subtraction_17" x="8.301" y="0" width="262.002" height="371.999" filterUnits="userSpaceOnUse">
      <feOffset dy="3" input="SourceAlpha"/>
      <feGaussianBlur stdDeviation="3" result="blur"/>
      <feFlood flood-opacity="0.627"/>
      <feComposite operator="in" in2="blur"/>
      <feComposite in="SourceGraphic"/>
    </filter>
    <linearGradient id="linear-gradient-2" x1="0.5" x2="0.5" y2="1" gradientUnits="objectBoundingBox">
      <stop offset="0" stop-color="#fff"/>
      <stop offset="1" stop-color="#fff"/>
    </linearGradient>
    <filter id="Path_363" x="9.302" y="159.4" width="262" height="177.6" filterUnits="userSpaceOnUse">
      <feOffset dy="3" input="SourceAlpha"/>
      <feGaussianBlur stdDeviation="3" result="blur-2"/>
      <feFlood flood-opacity="0.871"/>
      <feComposite operator="in" in2="blur-2"/>
      <feComposite in="SourceGraphic"/>
    </filter>
    <linearGradient id="linear-gradient-3" x1="0.5" x2="0.5" y2="1" gradientUnits="objectBoundingBox">
      <stop offset="0" stop-color="#bfbfbf"/>
      <stop offset="0.404" stop-color="#8b8c8f"/>
      <stop offset="1" stop-color="#3e3e3e"/>
    </linearGradient>
    <filter id="Subtraction_18" x="0" y="204" width="277.905" height="168.148" filterUnits="userSpaceOnUse">
      <feOffset dy="3" input="SourceAlpha"/>
      <feGaussianBlur stdDeviation="3" result="blur-3"/>
      <feFlood flood-opacity="0.557"/>
      <feComposite operator="in" in2="blur-3"/>
      <feComposite in="SourceGraphic"/>
    </filter>
  </defs>
  <g id="Group_1192" data-name="Group 1192" transform="translate(-68.048 -110)">
    <g transform="matrix(1, 0, 0, 1, 68.05, 110)" filter="url(#Subtraction_17)">
      <path id="Subtraction_17-2" data-name="Subtraction 17" d="M-14714-5195h-218a12.916,12.916,0,0,1-9.192-3.806A12.919,12.919,0,0,1-14945-5208v-328a12.917,12.917,0,0,1,3.808-9.192A12.917,12.917,0,0,1-14932-5549h218a12.917,12.917,0,0,1,9.192,3.808A12.917,12.917,0,0,1-14701-5536v328a12.919,12.919,0,0,1-3.808,9.194A12.912,12.912,0,0,1-14714-5195Zm-155-322a10.013,10.013,0,0,0-10,10,10.014,10.014,0,0,0,10,10h92a9.934,9.934,0,0,0,7.072-2.931A9.94,9.94,0,0,0-14767-5507a9.931,9.931,0,0,0-2.927-7.07A9.932,9.932,0,0,0-14777-5517h-36v-4a9.006,9.006,0,0,0-9-8.994h-3a9.006,9.006,0,0,0-9,8.994v4Z" transform="translate(14962.3 5555)" fill="url(#linear-gradient)"/>
    </g>
    <g transform="matrix(1, 0, 0, 1, 68.05, 110)" filter="url(#Path_363)">
      <path id="Path_363-2" data-name="Path 363" d="M15,0H229c8.284,0,15,7.146,15,15.96V143.64c0,8.814-6.716,15.96-15,15.96H15c-8.284,0-15-7.146-15-15.96V15.96C0,7.146,6.716,0,15,0Z" transform="translate(18.3 165.4)" fill="url(#linear-gradient-2)"/>
    </g>
    <g transform="matrix(1, 0, 0, 1, 68.05, 110)" filter="url(#Subtraction_18)">
      <path id="Subtraction_18-2" data-name="Subtraction 18" d="M-14706.351-5398.852l-217.8-.349a11.934,11.934,0,0,1-8.939-3.636,12.758,12.758,0,0,1-2.835-4.9,16.937,16.937,0,0,1-.73-6.186L-14945-5534a14.9,14.9,0,0,1,4.394-10.6A14.9,14.9,0,0,1-14930-5549h229.907a14.9,14.9,0,0,1,10.605,4.394,14.9,14.9,0,0,1,4.394,10.6l-7.1,120a15.781,15.781,0,0,1-3.97,10.682A13.6,13.6,0,0,1-14706.351-5398.852Zm-78.3-80.218a7.589,7.589,0,0,0-6.862,4.049l-7.576,15.468a6.226,6.226,0,0,0-.234,5.015,7.048,7.048,0,0,0,4.037,3.995l.446.18a8.081,8.081,0,0,0,3.05.592,7.59,7.59,0,0,0,6.86-4.051l7.576-15.468a6.219,6.219,0,0,0,.233-5.015,7.141,7.141,0,0,0-4.037-3.99l-.446-.184A8.084,8.084,0,0,0-14784.648-5479.07Zm-18.27-16.951a7.588,7.588,0,0,0-6.862,4.051l-15.427,31.487a10.555,10.555,0,0,1-2.152,2.625,5.46,5.46,0,0,1-1.854,1.009h-.012c-.253.02-1.1.088-1.293.134-.222.051-.315.333-.319.345a1.337,1.337,0,0,0,.4.439c.474.339,2.531,1.381,2.551,1.392s1.256.667,2.854,1.456c1.539.761,2.131,1,3.427,1.525l.207.084.443.18a8.1,8.1,0,0,0,3.049.592,7.6,7.6,0,0,0,6.864-4.051l15.427-31.487a6.227,6.227,0,0,0,.23-5.015,7.054,7.054,0,0,0-4.038-3.994l-.442-.18A8.083,8.083,0,0,0-14802.918-5496.021Zm-25.563-3.62a11.385,11.385,0,0,0-9.021,4.31c-.1.126-.243.318-.375.521a9.7,9.7,0,0,0-1.054,2.044l-14.759,30.133a6.215,6.215,0,0,0-.235,5.01,7.136,7.136,0,0,0,4.034,3.991l.446.18a8.088,8.088,0,0,0,3.054.593,8.118,8.118,0,0,0,2.689-.454,7.212,7.212,0,0,0,4.163-3.593l10.91-22.279c.049,0,.1,0,.146,0a11.448,11.448,0,0,0,7.818-3,9.8,9.8,0,0,0,3.239-7.235C-14817.424-5495.053-14822.384-5499.641-14828.481-5499.641Z" transform="translate(14954 5759)" fill="url(#linear-gradient-3)"/>
    </g>
  </g>
</svg>
