<svg xmlns="http://www.w3.org/2000/svg" xmlns:xlink="http://www.w3.org/1999/xlink" width="259.904" height="150.002" viewBox="0 0 259.904 150.002">
  <defs>
    <linearGradient id="linear-gradient" x1="0.5" x2="0.5" y2="1" gradientUnits="objectBoundingBox">
      <stop offset="0" stop-color="#bfbfbf"/>
      <stop offset="0.404" stop-color="#8b8c8f"/>
      <stop offset="1" stop-color="#3e3e3e"/>
    </linearGradient>
  </defs>
  <path id="Subtraction_24" data-name="Subtraction 24" d="M-14729-5429h-214a14.9,14.9,0,0,1-10.605-4.394A14.909,14.909,0,0,1-14958-5444l-8.8-120a14.9,14.9,0,0,1,4.394-10.608A14.9,14.9,0,0,1-14951.8-5579h229.9a14.9,14.9,0,0,1,10.608,4.394A14.9,14.9,0,0,1-14706.9-5564l-7.1,120a14.9,14.9,0,0,1-4.394,10.608A14.9,14.9,0,0,1-14729-5429Zm-77.451-80.072a7.59,7.59,0,0,0-6.864,4.051l-7.576,15.468a6.226,6.226,0,0,0-.233,5.012,7.146,7.146,0,0,0,4.039,4l.442.18a8.117,8.117,0,0,0,3.051.594,7.6,7.6,0,0,0,6.862-4.049l7.576-15.468a6.232,6.232,0,0,0,.233-5.017,7.046,7.046,0,0,0-4.035-3.99l-.446-.184A8.1,8.1,0,0,0-14806.451-5509.071Zm-18.27-16.952a7.584,7.584,0,0,0-6.86,4.051l-15.427,31.488a10.52,10.52,0,0,1-2.152,2.625,5.545,5.545,0,0,1-1.855,1.011h-.014c-.253.019-1.093.085-1.29.13-.217.05-.31.318-.319.349a1.377,1.377,0,0,0,.4.437c.468.339,2.531,1.383,2.551,1.394s1.252.664,2.851,1.454,2.165,1.014,3.556,1.575l.08.032.443.181a8.084,8.084,0,0,0,3.05.593,7.593,7.593,0,0,0,6.862-4.049l15.427-31.488a6.231,6.231,0,0,0,.234-5.012,7.162,7.162,0,0,0-4.039-4l-.447-.18A8.088,8.088,0,0,0-14824.721-5526.023Zm-46.525,42.571a8.059,8.059,0,0,0,3.054.593,8.062,8.062,0,0,0,2.686-.454,7.285,7.285,0,0,0,4.165-3.595l10.912-22.274h.146a11.45,11.45,0,0,0,7.818-3,9.79,9.79,0,0,0,3.239-7.232c0-5.642-4.96-10.231-11.058-10.231a11.815,11.815,0,0,0-5.157,1.177,10.942,10.942,0,0,0-3.865,3.135c-.132.166-.258.341-.376.522a9.827,9.827,0,0,0-1.052,2.04l-14.762,30.136a6.219,6.219,0,0,0-.233,5.009,7.143,7.143,0,0,0,4.035,3.995l.446.181h0Z" transform="translate(14966.804 5579.001)" fill="url(#linear-gradient)"/>
</svg>
